<svg width="276" height="79" viewBox="0 0 276 79" fill="none" xmlns="http://www.w3.org/2000/svg">
<g clip-path="url(#clip0_2391_692)">
<g clip-path="url(#clip1_2391_692)">
<path d="M147.997 6.29247C144.102 3.85227 139.599 2.55823 135.004 2.55823C130.409 2.55823 125.906 3.85227 122.011 6.29247C121.86 6.38496 121.728 6.50684 121.625 6.65094C121.521 6.79503 121.448 6.9584 121.409 7.13142C121.369 7.30443 121.365 7.48358 121.396 7.65828C121.427 7.83299 121.493 7.9997 121.589 8.14859L121.686 8.29814C121.871 8.57821 122.157 8.77634 122.484 8.85164C122.811 8.92694 123.154 8.87366 123.443 8.70279C126.9 6.52874 130.9 5.3754 134.982 5.3754C139.064 5.3754 143.064 6.52874 146.521 8.70279C146.81 8.87366 147.153 8.92694 147.48 8.85164C147.807 8.77634 148.093 8.57821 148.278 8.29814L148.375 8.14859C148.473 8.00236 148.542 7.83797 148.576 7.66502C148.61 7.49207 148.61 7.31403 148.575 7.14126C148.539 6.96849 148.47 6.80446 148.371 6.65873C148.272 6.513 148.145 6.3885 147.997 6.29247Z" fill="#3AA091"/>
<path d="M144.534 11.6232C141.671 9.84604 138.369 8.90442 134.999 8.90442C131.63 8.90442 128.328 9.84604 125.464 11.6232C125.316 11.7172 125.187 11.8397 125.086 11.9837C124.985 12.1278 124.914 12.2904 124.876 12.4623C124.839 12.6342 124.836 12.8118 124.867 12.9849C124.899 13.158 124.964 13.3231 125.06 13.4706L125.157 13.6201C125.342 13.9002 125.628 14.0983 125.955 14.1736C126.282 14.2489 126.625 14.1956 126.914 14.0248C129.336 12.5191 132.131 11.7212 134.982 11.7212C137.833 11.7212 140.627 12.5191 143.049 14.0248C143.338 14.1956 143.682 14.2489 144.009 14.1736C144.336 14.0983 144.621 13.9002 144.807 13.6201L144.904 13.4706C145.001 13.3252 145.069 13.1619 145.103 12.9902C145.137 12.8185 145.137 12.6418 145.103 12.4701C145.068 12.2984 145.001 12.1352 144.903 11.9899C144.805 11.8445 144.68 11.7199 144.534 11.6232Z" fill="#3AA091"/>
<path d="M141.072 16.9454C139.239 15.8417 137.139 15.2587 135 15.2587C132.86 15.2587 130.761 15.8417 128.927 16.9454C128.779 17.0384 128.651 17.1602 128.55 17.3034C128.449 17.4467 128.378 17.6086 128.34 17.7798C128.302 17.9509 128.299 18.1279 128.33 18.3003C128.362 18.4727 128.427 18.6371 128.523 18.7839L128.611 18.9246C128.804 19.2107 129.101 19.4108 129.438 19.483C129.776 19.5551 130.128 19.4937 130.421 19.3117C131.809 18.4941 133.39 18.0629 135 18.0629C136.61 18.0629 138.191 18.4941 139.578 19.3117C139.873 19.4929 140.226 19.5529 140.563 19.4791C140.901 19.4053 141.197 19.2034 141.389 18.9158L141.476 18.7751C141.572 18.629 141.637 18.4652 141.668 18.2935C141.7 18.1218 141.696 17.9456 141.659 17.7751C141.621 17.6047 141.55 17.4435 141.449 17.301C141.348 17.1585 141.22 17.0376 141.072 16.9454Z" fill="#3AA091"/>
</g>
<path fill-rule="evenodd" clip-rule="evenodd" d="M15.6919 35.4081H0V35.1557L3.03714 23.7987H27.5873V78.06L15.6919 71.4982V35.4081Z" fill="#3AA091"/>
<path fill-rule="evenodd" clip-rule="evenodd" d="M29.6123 23.5463C35.4993 23.4857 49.8472 22.0951 54.1625 24.0511L56.9466 35.4081H41.5078V62.1602C41.5078 64.6486 42.2898 70.2817 41.0016 71.7506L29.6123 78.06V23.5463Z" fill="#F8F6F6"/>
<path fill-rule="evenodd" clip-rule="evenodd" d="M112.374 23.7987H123.763L111.615 72.0029H99.9726L91.8735 40.708H91.6204L83.2683 72.0029H71.879V71.4982L59.7305 24.0511V23.7987H71.6259L78.7126 58.1221L87.0647 25.0606H97.1885L105.288 57.8698L105.794 57.6174L112.374 23.7987Z" fill="#F8F6F6"/>
<path fill-rule="evenodd" clip-rule="evenodd" d="M129.332 23.7987H140.468V72.0029H129.332V23.7987Z" fill="#F8F6F6"/>
<path fill-rule="evenodd" clip-rule="evenodd" d="M149.832 23.7987H160.462L181.216 54.5888V23.7987H192.099L191.846 72.0029H181.975L160.968 40.4557H160.715L160.462 72.0029H149.832V23.7987Z" fill="#F8F6F6"/>
<path fill-rule="evenodd" clip-rule="evenodd" d="M262.712 43.989C267.678 43.8199 272.867 44.6502 275.114 47.2699L271.571 52.5699C269.751 51.5906 263.368 48.6101 261.447 51.8127V53.5794C267.096 55.9846 278.189 56.9385 275.62 66.4507C273.476 74.3854 256.413 75.1804 251.576 68.9745L255.626 63.6745C258.306 65.6077 263.31 67.7252 267.268 65.4412L267.521 64.684L267.268 63.6745C265.302 60.4214 257.709 60.3961 254.866 57.8698C253.654 56.7922 252.875 55.0785 252.842 52.8223C252.738 45.9475 257.797 45.955 262.712 43.989Z" fill="#3AA091"/>
<path fill-rule="evenodd" clip-rule="evenodd" d="M246.768 72.0029H238.415C238.522 65.7414 239.478 56.1738 236.897 52.3174C226.717 49.1627 228.529 62.6877 228.798 72.0029H220.699C220.843 66.3421 222.286 53.9579 218.421 52.0651C209.135 48.8346 211.094 64.1212 211.334 72.0029H202.729V44.9985H210.828L211.081 47.7746C216.049 43.9915 222.389 43.1662 227.026 48.027C230.038 45.7379 233.705 43.459 238.922 44.7461C248.939 47.2169 247 59.7273 246.768 72.0029Z" fill="#3AA091"/>
</g>
<defs>
<clipPath id="clip0_2391_692">
<rect width="276" height="78" fill="white" transform="translate(0 0.0600586)"/>
</clipPath>
<clipPath id="clip1_2391_692">
<rect width="31.6369" height="24.2283" fill="white" transform="translate(119.208 -1.95898)"/>
</clipPath>
</defs>
</svg>
